<svg viewBox="0 0 192 192" xmlns="http://www.w3.org/2000/svg"><rect fill="#12131a" height="192" rx="32" width="192"/><rect fill="#a8d8be" height="40" rx="3" width="40" x="13" y="13"/><rect fill="#a8d8be" height="40" rx="3" width="40" x="55" y="13"/><rect fill="#7b8cde" height="40" rx="3" width="40" x="97" y="13"/><rect fill="#7b8cde" height="40" rx="3" width="40" x="139" y="13"/><rect fill="#a8d8be" height="40" rx="3" width="40" x="13" y="55"/><rect fill="#7b8cde" height="40" rx="3" width="40" x="55" y="55"/><rect fill="#7b8cde" height="40" rx="3" width="40" x="97" y="55"/><rect fill="#a8d8be" height="40" rx="3" width="40" x="139" y="55"/><rect fill="#7b8cde" height="40" rx="3" width="40" x="13" y="97"/><rect fill="#7b8cde" height="40" rx="3" width="40" x="55" y="97"/><rect fill="#a8d8be" height="40" rx="3" width="40" x="97" y="97"/><rect fill="#a8d8be" height="40" rx="3" width="40" x="139" y="97"/><rect fill="#7b8cde" height="40" rx="3" width="40" x="13" y="139"/><rect fill="#a8d8be" height="40" rx="3" width="40" x="55" y="139"/><rect fill="#a8d8be" height="40" rx="3" width="40" x="97" y="139"/><rect fill="#7b8cde" height="40" rx="3" width="40" x="139" y="139"/></svg>